<svg id="zaarly-svg-spritesheet">
	<defs>
		<symbol viewBox="0 0 32 32" fill="none" xmlns="http://www.w3.org/2000/svg" id="svg-search">
			<path d="M30.579 27.613l-5.562-5.349c4.662-5.635 3.73-13.868-2.084-18.387C17.121-.643 8.63.262 3.967 5.897-.695 11.532.238 19.765 6.051 24.284c4.932 3.835 11.95 3.835 16.882 0l5.517 5.349a1.533 1.533 0 0 0 2.129 0 1.422 1.422 0 0 0 0-2.02zm-16.055-3.329c-5.796 0-10.494-4.554-10.494-10.173S8.728 3.938 14.524 3.938c5.795 0 10.493 4.554 10.493 10.173S20.32 24.284 14.524 24.284z" fill="#000"></path>
		</symbol>
		<symbol viewBox="0 0 32 32" fill="none" xmlns="http://www.w3.org/2000/svg" id="svg-airplane-send">
			<path d="M28.507 11.971L7.509 1.472a4.5 4.5 0 0 0-6.119 5.85l3.6 8.054a1.59 1.59 0 0 1 0 1.23l-3.6 8.053a4.5 4.5 0 0 0 4.11 6.33 4.709 4.709 0 0 0 2.024-.48L28.522 20.01a4.5 4.5 0 0 0 0-8.039h-.015zm-1.335 5.354l-20.998 10.5a1.5 1.5 0 0 1-2.024-1.95l3.584-8.055c.047-.107.087-.217.12-.33h10.334a1.5 1.5 0 1 0 0-3H7.854a2.999 2.999 0 0 0-.12-.33L4.15 6.108a1.5 1.5 0 0 1 2.024-1.95l20.998 10.499a1.5 1.5 0 0 1 0 2.67z" fill="#000"></path>
		</symbol>
		<symbol viewBox="0 0 32 32" fill="none" xmlns="http://www.w3.org/2000/svg" id="svg-chevron-down">
			<path d="M15.363 23.032L4.264 12.024a.9.9 0 0 1 0-1.275L5.75 9.264a.9.9 0 0 1 1.275 0L16 18.15l8.976-8.886a.9.9 0 0 1 1.275 0l1.485 1.485a.9.9 0 0 1 0 1.275L16.637 23.032a.9.9 0 0 1-1.274 0z" fill="#000"></path>
		</symbol>
		<symbol viewBox="0 0 32 32" fill="none" xmlns="http://www.w3.org/2000/svg" id="svg-chevron-left">
			<path d="M9.264 15.363L20.273 4.264a.9.9 0 0 1 1.274 0l1.485 1.485a.9.9 0 0 1 0 1.275L14.146 16l8.886 8.976a.9.9 0 0 1 0 1.275l-1.485 1.485a.9.9 0 0 1-1.274 0L9.264 16.637a.9.9 0 0 1 0-1.274z" fill="#000"></path>
		</symbol>
		<symbol viewBox="0 0 32 32" fill="none" xmlns="http://www.w3.org/2000/svg" id="svg-chevron-right">
			<path d="M23.032 16.637L12.024 27.736a.9.9 0 0 1-1.275 0L9.264 26.25a.9.9 0 0 1 0-1.275L18.15 16 9.264 7.024a.9.9 0 0 1 0-1.275l1.485-1.485a.9.9 0 0 1 1.275 0l11.008 11.099a.9.9 0 0 1 0 1.274z" fill="#000"></path>
		</symbol>
		<symbol viewBox="0 0 32 32" fill="none" xmlns="http://www.w3.org/2000/svg" id="svg-chevron-up">
			<path d="M16.637 9.264l11.099 11.009a.9.9 0 0 1 0 1.274l-1.485 1.485a.9.9 0 0 1-1.275 0L16 14.146l-8.976 8.886a.9.9 0 0 1-1.275 0l-1.485-1.485a.9.9 0 0 1 0-1.274L15.363 9.264a.9.9 0 0 1 1.274 0z" fill="#000"></path>
		</symbol>
		<symbol viewBox="0 0 32 32" fill="none" xmlns="http://www.w3.org/2000/svg" id="svg-ellipsis-vertical">
			<path d="M15.889 8.778A2.889 2.889 0 1 0 13 5.888a2.889 2.889 0 0 0 2.889 2.89zm0 14.444a2.889 2.889 0 1 0 2.889 2.89 2.889 2.889 0 0 0-2.89-2.89zm0-10.11A2.889 2.889 0 1 0 18.778 16a2.889 2.889 0 0 0-2.89-2.889z" fill="#000"></path>
		</symbol>
		<symbol viewBox="0 0 32 32" fill="none" xmlns="http://www.w3.org/2000/svg" id="svg-exit">
			<path d="M5 16c0 .828.597 1.5 1.333 1.5h10.12l-3.066 3.435c-.523.583-.527 1.533-.008 2.121a.6.6 0 0 1 .008.009c.518.588 1.362.592 1.885.009l.008-.009 5.333-6a1.51 1.51 0 0 0 .28-.495 1.674 1.674 0 0 0 0-1.14 1.536 1.536 0 0 0-.28-.495l-5.333-6c-.523-.588-1.37-.588-1.893 0-.523.588-.523 1.542 0 2.13l3.066 3.435H6.333C5.597 14.5 5 15.172 5 16zM22.333 1H9C6.79 1 5 3.015 5 5.5V10c0 .828.597 1.5 1.333 1.5.737 0 1.334-.672 1.334-1.5V5.5C7.667 4.672 8.264 4 9 4h13.333c.737 0 1.334.672 1.334 1.5v21c0 .828-.597 1.5-1.334 1.5H9c-.736 0-1.333-.672-1.333-1.5V22c0-.828-.597-1.5-1.334-1.5C5.597 20.5 5 21.172 5 22v4.5C5 28.985 6.79 31 9 31h13.333c2.21 0 4-2.015 4-4.5v-21c0-2.485-1.79-4.5-4-4.5z" fill="#000"></path>
		</symbol>
		<symbol viewBox="0 0 32 32" fill="none" xmlns="http://www.w3.org/2000/svg" id="svg-hamburger">
			<path d="M2.5 9h27a1.5 1.5 0 0 0 0-3h-27a1.5 1.5 0 1 0 0 3zm27 14h-27a1.5 1.5 0 0 0 0 3h27a1.5 1.5 0 0 0 0-3zm0-8.5h-27a1.5 1.5 0 0 0 0 3h27a1.5 1.5 0 0 0 0-3z" fill="#000"></path>
		</symbol>
	</defs>
</svg>